<svg width="319" height="105" viewBox="0 0 319 105" fill="none" xmlns="http://www.w3.org/2000/svg">
<path opacity="0.3" d="M5.07 103C3.59667 103 2.38333 102.523 1.43 101.57C0.476667 100.617 1.93715e-07 99.4033 1.93715e-07 97.93V6.53999C1.93715e-07 5.06666 0.476667 3.85333 1.43 2.89999C2.38333 1.94666 3.59667 1.47 5.07 1.47H28.47C35.9233 1.47 42.7267 2.72666 48.88 5.24C55.12 7.66666 60.4933 11.1767 65 15.77C69.5067 20.2767 72.9733 25.6067 75.4 31.76C77.9133 37.9133 79.17 44.7167 79.17 52.17C79.17 59.6233 77.9133 66.47 75.4 72.71C72.9733 78.8633 69.5067 84.2367 65 88.83C60.4933 93.3367 55.12 96.8467 48.88 99.36C42.7267 101.787 35.9233 103 28.47 103H5.07ZM10.14 93.9H28.47C36.4433 93.9 43.4633 92.1233 49.53 88.57C55.6833 84.93 60.4933 79.99 63.96 73.75C67.4267 67.4233 69.16 60.23 69.16 52.17C69.16 44.11 67.4267 36.96 63.96 30.72C60.4933 24.3933 55.6833 19.4533 49.53 15.9C43.4633 12.3467 36.4433 10.57 28.47 10.57H10.14V93.9ZM144.43 104.3C136.89 104.3 129.957 103 123.63 100.4C117.303 97.8 111.8 94.16 107.12 89.48C102.527 84.8 98.93 79.2967 96.33 72.97C93.8167 66.6433 92.56 59.71 92.56 52.17C92.56 44.7167 93.8167 37.8267 96.33 31.5C98.93 25.1733 102.527 19.67 107.12 14.99C111.8 10.31 117.303 6.67 123.63 4.07C129.957 1.47 136.89 0.169999 144.43 0.169999C151.883 0.169999 158.773 1.47 165.1 4.07C171.427 6.67 176.93 10.31 181.61 14.99C186.29 19.67 189.887 25.1733 192.4 31.5C195 37.8267 196.3 44.7167 196.3 52.17C196.3 59.71 195 66.6433 192.4 72.97C189.887 79.2967 186.29 84.8 181.61 89.48C176.93 94.16 171.427 97.8 165.1 100.4C158.773 103 151.883 104.3 144.43 104.3ZM144.43 94.68C150.41 94.68 155.957 93.64 161.07 91.56C166.183 89.3933 170.603 86.4033 174.33 82.59C178.143 78.69 181.09 74.1833 183.17 69.07C185.25 63.87 186.29 58.2367 186.29 52.17C186.29 46.19 185.25 40.6433 183.17 35.53C181.09 30.33 178.143 25.8233 174.33 22.01C170.603 18.11 166.183 15.12 161.07 13.04C155.957 10.8733 150.41 9.79 144.43 9.79C138.363 9.79 132.773 10.8733 127.66 13.04C122.547 15.12 118.083 18.11 114.27 22.01C110.543 25.8233 107.64 30.33 105.56 35.53C103.48 40.6433 102.44 46.19 102.44 52.17C102.44 58.2367 103.48 63.87 105.56 69.07C107.64 74.1833 110.543 78.69 114.27 82.59C118.083 86.4033 122.547 89.3933 127.66 91.56C132.773 93.64 138.363 94.68 144.43 94.68ZM222.287 103C220.9 103 219.687 102.523 218.647 101.57C217.693 100.53 217.217 99.3167 217.217 97.93V6.53999C217.217 5.06666 217.693 3.85333 218.647 2.89999C219.687 1.94666 220.9 1.47 222.287 1.47C224.367 1.47 225.883 2.33666 226.837 4.07L270.647 91.17H266.227L309.257 4.07C310.297 2.33666 311.813 1.47 313.807 1.47C315.193 1.47 316.363 1.94666 317.317 2.89999C318.27 3.85333 318.747 5.06666 318.747 6.53999V97.93C318.747 99.3167 318.27 100.53 317.317 101.57C316.363 102.523 315.193 103 313.807 103C312.333 103 311.077 102.523 310.037 101.57C309.083 100.53 308.607 99.3167 308.607 97.93V19.67L310.817 19.8L272.467 98.19C271.513 99.8367 270.04 100.66 268.047 100.66C265.88 100.66 264.32 99.62 263.367 97.54L224.757 20.32L227.357 19.67V97.93C227.357 99.3167 226.837 100.53 225.797 101.57C224.843 102.523 223.673 103 222.287 103Z" fill="#0093A1"/>
</svg>
