<svg width="332" height="102" viewBox="0 0 332 102" fill="none" xmlns="http://www.w3.org/2000/svg">
<path opacity="0.3" d="M6.01 102C4.62333 102 3.41 101.523 2.37 100.57C1.41667 99.53 0.94 98.3167 0.94 96.93V5.53999C0.94 4.06666 1.41667 2.85333 2.37 1.89999C3.32333 0.946663 4.53667 0.469998 6.01 0.469998H66.98C68.4533 0.469998 69.6667 0.946663 70.62 1.89999C71.5733 2.76666 72.05 3.93666 72.05 5.41C72.05 6.70999 71.5733 7.83666 70.62 8.79C69.6667 9.74333 68.4533 10.22 66.98 10.22H11.08V46.1H51.77C53.2433 46.1 54.4567 46.5767 55.41 47.53C56.3633 48.4833 56.84 49.6533 56.84 51.04C56.84 52.4267 56.3633 53.5967 55.41 54.55C54.4567 55.5033 53.2433 55.98 51.77 55.98H11.08V96.93C11.08 98.3167 10.6033 99.53 9.65 100.57C8.69667 101.523 7.48333 102 6.01 102ZM95.32 102C93.8467 102 92.6333 101.523 91.68 100.57C90.7267 99.6167 90.25 98.4033 90.25 96.93V5.53999C90.25 4.06666 90.7267 2.85333 91.68 1.89999C92.6333 0.946663 93.8467 0.469998 95.32 0.469998H119.63C125.957 0.469998 131.59 1.81333 136.53 4.49999C141.47 7.09999 145.327 10.7833 148.1 15.55C150.96 20.23 152.39 25.6467 152.39 31.8C152.39 37.6933 150.96 42.9367 148.1 47.53C145.327 52.1233 141.47 55.72 136.53 58.32C131.59 60.92 125.957 62.22 119.63 62.22H100.39V96.93C100.39 98.4033 99.9133 99.6167 98.96 100.57C98.0067 101.523 96.7933 102 95.32 102ZM149.66 102C148.533 102 147.623 101.783 146.93 101.35C146.323 100.917 145.76 100.267 145.24 99.4L120.28 59.62L130.42 57.02L153.69 94.2C154.99 96.28 155.207 98.1 154.34 99.66C153.56 101.22 152 102 149.66 102ZM100.39 52.47H119.63C124.05 52.47 127.95 51.6033 131.33 49.87C134.797 48.05 137.527 45.58 139.52 42.46C141.513 39.34 142.51 35.7867 142.51 31.8C142.51 27.5533 141.513 23.8267 139.52 20.62C137.527 17.3267 134.797 14.77 131.33 12.95C127.95 11.13 124.05 10.22 119.63 10.22H100.39V52.47ZM175.681 102C174.208 102 172.995 101.523 172.041 100.57C171.088 99.6167 170.611 98.4033 170.611 96.93V5.53999C170.611 4.06666 171.088 2.85333 172.041 1.89999C172.995 0.946663 174.208 0.469998 175.681 0.469998H236.651C238.038 0.469998 239.208 0.946663 240.161 1.89999C241.201 2.76666 241.721 3.93666 241.721 5.41C241.721 6.70999 241.201 7.83666 240.161 8.79C239.208 9.74333 238.038 10.22 236.651 10.22H180.751V46.1H221.441C222.915 46.1 224.128 46.5767 225.081 47.53C226.035 48.4833 226.511 49.6533 226.511 51.04C226.511 52.4267 226.035 53.5967 225.081 54.55C224.128 55.5033 222.915 55.98 221.441 55.98H180.751V92.25H236.651C238.038 92.25 239.208 92.7267 240.161 93.68C241.201 94.6333 241.721 95.76 241.721 97.06C241.721 98.5333 241.201 99.7467 240.161 100.7C239.208 101.567 238.038 102 236.651 102H175.681ZM265.691 102C264.218 102 263.004 101.523 262.051 100.57C261.098 99.6167 260.621 98.4033 260.621 96.93V5.53999C260.621 4.06666 261.098 2.85333 262.051 1.89999C263.004 0.946663 264.218 0.469998 265.691 0.469998H326.661C328.048 0.469998 329.218 0.946663 330.171 1.89999C331.211 2.76666 331.731 3.93666 331.731 5.41C331.731 6.70999 331.211 7.83666 330.171 8.79C329.218 9.74333 328.048 10.22 326.661 10.22H270.761V46.1H311.451C312.924 46.1 314.138 46.5767 315.091 47.53C316.044 48.4833 316.521 49.6533 316.521 51.04C316.521 52.4267 316.044 53.5967 315.091 54.55C314.138 55.5033 312.924 55.98 311.451 55.98H270.761V92.25H326.661C328.048 92.25 329.218 92.7267 330.171 93.68C331.211 94.6333 331.731 95.76 331.731 97.06C331.731 98.5333 331.211 99.7467 330.171 100.7C329.218 101.567 328.048 102 326.661 102H265.691Z" fill="#0093A1"/>
</svg>
